HIERARCHY
ROOT hips_JNT
{
    OFFSET 0 0 0
    CHANNELS 6 Xposition Yposition Zposition Zrotation Xrotation Yrotation
    JOINT spine_JNT
    {
        OFFSET -1.56926e-06 8.92007 0.265482
        CHANNELS 3 Zrotation Xrotation Yrotation
        JOINT spine1_JNT
        {
            OFFSET -9.45311e-07 13.9808 -0.963336
            CHANNELS 3 Zrotation Xrotation Yrotation
            JOINT spine2_JNT
            {
                OFFSET 0.00376512 9.65337 -1.46169
                CHANNELS 3 Zrotation Xrotation Yrotation
                JOINT l_shoulder_JNT
                {
                    OFFSET 2.75575 8.85723 0.537554
                    CHANNELS 3 Zrotation Xrotation Yrotation
                    JOINT l_arm_JNT
                    {
                        OFFSET 9.94938 -0.882506 -5.67532
                        CHANNELS 3 Zrotation Xrotation Yrotation
                        JOINT l_forearm_JNT
                        {
                            OFFSET 22.0813 -0.00821352 0.00300035
                            CHANNELS 3 Zrotation Xrotation Yrotation
                            JOINT l_hand_JNT
                            {
                                OFFSET 19.6324 -0.00730753 0.00227764
                                CHANNELS 3 Zrotation Xrotation Yrotation
                                JOINT l_handThumb1_JNT
                                {
                                    OFFSET 3.50398 -1.16091 1.5753
                                    CHANNELS 3 Zrotation Xrotation Yrotation
                                    JOINT l_handThumb2_JNT
                                    {
                                        OFFSET 2.00002 -0.742412 1.40448
                                        CHANNELS 3 Zrotation Xrotation Yrotation
                                        JOINT l_handThumb3_JNT
                                        {
                                            OFFSET 2.31028 -1.14459 0.861435
                                            CHANNELS 3 Zrotation Xrotation Yrotation
                                            End Site
                                            {
                                                OFFSET 0 0 0
                                            }
                                        }
                                    }
                                }
                                JOINT l_handIndex1_JNT
                                {
                                    OFFSET 8.73498 -0.113869 1.74649
                                    CHANNELS 3 Zrotation Xrotation Yrotation
                                    JOINT l_handIndex2_JNT
                                    {
                                        OFFSET 3.00419 -0.0119567 0.219374
                                        CHANNELS 3 Zrotation Xrotation Yrotation
                                        JOINT l_handIndex3_JNT
                                        {
                                            OFFSET 2.2936 -0.0178933 0.139157
                                            CHANNELS 3 Zrotation Xrotation Yrotation
                                            End Site
                                            {
                                                OFFSET 0 0 0
                                            }
                                        }
                                    }
                                }
                                JOINT l_handMiddle1_JNT
                                {
                                    OFFSET 8.94402 0.215197 0.219049
                                    CHANNELS 3 Zrotation Xrotation Yrotation
                                    JOINT l_handMiddle2_JNT
                                    {
                                        OFFSET 3.27637 -0.0240684 0.019037
                                        CHANNELS 3 Zrotation Xrotation Yrotation
                                        JOINT l_handMiddle3_JNT
                                        {
                                            OFFSET 2.48718 0.0301957 0.0435539
                                            CHANNELS 3 Zrotation Xrotation Yrotation
                                            End Site
                                            {
                                                OFFSET 0 0 0
                                            }
                                        }
                                    }
                                }
                                JOINT l_handRing1_JNT
                                {
                                    OFFSET 8.49259 0.147486 -1.1471
                                    CHANNELS 3 Zrotation Xrotation Yrotation
                                    JOINT l_handRing2_JNT
                                    {
                                        OFFSET 3.11304 -0.0371099 -0.0604287
                                        CHANNELS 3 Zrotation Xrotation Yrotation
                                        JOINT l_handRing3_JNT
                                        {
                                            OFFSET 2.35177 0.0593185 -0.0519425
                                            CHANNELS 3 Zrotation Xrotation Yrotation
                                            End Site
                                            {
                                                OFFSET 0 0 0
                                            }
                                        }
                                    }
                                }
                                JOINT l_handPinky1_JNT
                                {
                                    OFFSET 7.6071 -0.140619 -2.28307
                                    CHANNELS 3 Zrotation Xrotation Yrotation
                                    JOINT l_handPinky2_JNT
                                    {
                                        OFFSET 2.48513 0.021708 -0.251305
                                        CHANNELS 3 Zrotation Xrotation Yrotation
                                        JOINT l_handPinky3_JNT
                                        {
                                            OFFSET 2.03097 0.0165105 -0.176625
                                            CHANNELS 3 Zrotation Xrotation Yrotation
                                            End Site
                                            {
                                                OFFSET 0 0 0
                                            }
                                        }
                                    }
                                }
                            }
                        }
                    }
                }
                JOINT r_shoulder_JNT
                {
                    OFFSET -2.74929 8.85936 0.536917
                    CHANNELS 3 Zrotation Xrotation Yrotation
                    JOINT r_arm_JNT
                    {
                        OFFSET -9.94868 -0.875092 -5.67759
                        CHANNELS 3 Zrotation Xrotation Yrotation
                        JOINT r_forearm_JNT
                        {
                            OFFSET -22.0814 0.00821352 0.00300035
                            CHANNELS 3 Zrotation Xrotation Yrotation
                            JOINT r_hand_JNT
                            {
                                OFFSET -19.6325 0.00729561 -0.00225902
                                CHANNELS 3 Zrotation Xrotation Yrotation
                                JOINT r_handThumb1_JNT
                                {
                                    OFFSET -3.50509 -1.15818 1.57505
                                    CHANNELS 3 Zrotation Xrotation Yrotation
                                    JOINT r_handThumb2_JNT
                                    {
                                        OFFSET -2.00061 -0.74079 1.40435
                                        CHANNELS 3 Zrotation Xrotation Yrotation
                                        JOINT r_handThumb3_JNT
                                        {
                                            OFFSET -2.31124 -1.14274 0.861293
                                            CHANNELS 3 Zrotation Xrotation Yrotation
                                            End Site
                                            {
                                                OFFSET 0 0 0
                                            }
                                        }
                                    }
                                }
                                JOINT r_handIndex1_JNT
                                {
                                    OFFSET -8.75251 -0.143778 1.74657
                                    CHANNELS 3 Zrotation Xrotation Yrotation
                                    JOINT r_handIndex2_JNT
                                    {
                                        OFFSET -3.00432 -0.0118852 0.21936
                                        CHANNELS 3 Zrotation Xrotation Yrotation
                                        JOINT r_handIndex3_JNT
                                        {
                                            OFFSET -2.29363 -0.0178218 0.139182
                                            CHANNELS 3 Zrotation Xrotation Yrotation
                                            End Site
                                            {
                                                OFFSET 0 0 0
                                            }
                                        }
                                    }
                                }
                                JOINT r_handMiddle1_JNT
                                {
                                    OFFSET -8.94377 0.222039 0.218229
                                    CHANNELS 3 Zrotation Xrotation Yrotation
                                    JOINT r_handMiddle2_JNT
                                    {
                                        OFFSET -3.2765 -0.0216365 0.0187881
                                        CHANNELS 3 Zrotation Xrotation Yrotation
                                        JOINT r_handMiddle3_JNT
                                        {
                                            OFFSET -2.48721 0.032115 0.0433944
                                            CHANNELS 3 Zrotation Xrotation Yrotation
                                            End Site
                                            {
                                                OFFSET 0 0 0
                                            }
                                        }
                                    }
                                }
                                JOINT r_handRing1_JNT
                                {
                                    OFFSET -8.51044 0.117564 -1.14701
                                    CHANNELS 3 Zrotation Xrotation Yrotation
                                    JOINT r_handRing2_JNT
                                    {
                                        OFFSET -3.11282 -0.0370622 -0.0604451
                                        CHANNELS 3 Zrotation Xrotation Yrotation
                                        JOINT r_handRing3_JNT
                                        {
                                            OFFSET -2.35179 0.0593066 -0.0519402
                                            CHANNELS 3 Zrotation Xrotation Yrotation
                                            End Site
                                            {
                                                OFFSET 0 0 0
                                            }
                                        }
                                    }
                                }
                                JOINT r_handPinky1_JNT
                                {
                                    OFFSET -7.62483 -0.170684 -2.28293
                                    CHANNELS 3 Zrotation Xrotation Yrotation
                                    JOINT r_handPinky2_JNT
                                    {
                                        OFFSET -2.48517 0.0216603 -0.251315
                                        CHANNELS 3 Zrotation Xrotation Yrotation
                                        JOINT r_handPinky3_JNT
                                        {
                                            OFFSET -2.00306 -0.327218 -0.190923
                                            CHANNELS 3 Zrotation Xrotation Yrotation
                                            End Site
                                            {
                                                OFFSET 0 0 0
                                            }
                                        }
                                    }
                                }
                            }
                        }
                    }
                }
                JOINT neck_JNT
                {
                    OFFSET 0.00435802 11.1696 -1.72922
                    CHANNELS 3 Zrotation Xrotation Yrotation
                    JOINT head_JNT
                    {
                        OFFSET 0.00254531 6.8544 2.28851
                        CHANNELS 3 Zrotation Xrotation Yrotation
                        End Site
                        {
                            OFFSET 0 0 0
                        }
                    }
                }
            }
        }
    }
    JOINT r_upleg_JNT
    {
        OFFSET -6.5544 0 0
        CHANNELS 3 Zrotation Xrotation Yrotation
        JOINT r_leg_JNT
        {
            OFFSET -3.79333 -30.7369 -0.926
            CHANNELS 3 Zrotation Xrotation Yrotation
            JOINT r_foot_JNT
            {
                OFFSET -2.08035 -28.8218 -4.5647
                CHANNELS 3 Zrotation Xrotation Yrotation
                JOINT r_toebase_JNT
                {
                    OFFSET -0.605839 -9.84125 11.9569
                    CHANNELS 3 Zrotation Xrotation Yrotation
                    End Site
                    {
                        OFFSET 0 0 0
                    }
                }
            }
        }
    }
    JOINT l_upleg_JNT
    {
        OFFSET 6.55439 -0.000137091 -3.91155e-06
        CHANNELS 3 Zrotation Xrotation Yrotation
        JOINT l_leg_JNT
        {
            OFFSET 3.7933 -30.7368 -0.926
            CHANNELS 3 Zrotation Xrotation Yrotation
            JOINT l_foot_JNT
            {
                OFFSET 2.08034 -28.8217 -4.56469
                CHANNELS 3 Zrotation Xrotation Yrotation
                JOINT l_toebase_JNT
                {
                    OFFSET 0.60584 -9.84127 11.957
                    CHANNELS 3 Zrotation Xrotation Yrotation
                    End Site
                    {
                        OFFSET 0 0 0
                    }
                }
            }
        }
    }
}
MOTION
Frames: 4
Frame Time: 0.033333
0.753284 37.9579 0.187442 19.6381 15.9156 -41.7772 7.01771 -0.00662824 0 -1.55228 2.11817 -3.17046 -0 0 0 -0 0 0 -26.3928 -1.75727 7.48418 15.6075 -1.0824 -7.88546 -0 0 0 4.10661 20.7048 -22.2077 -0 0 0 -10.0747 -0.0883547 1.00248 -15.8767 4.69178 0.652518 -20.4424 5.98161 1.07918 -13.6005 4.03527 0.481325 -18.5593 3.64237 0.594788 -23.8825 4.62929 0.979578 -15.9023 3.13664 0.438794 -21.1674 -2.06802 -0.385629 -27.2228 -2.61918 -0.635504 -18.1414 -1.7834 -0.285305 -23.2164 -4.50793 -0.926188 -29.8887 -5.6915 -1.52004 -19.8889 -3.89237 -0.684138 -0 0 0 -44.0823 -9.62992 23.5065 -17.7113 -1.35879 8.7047 6.83019e-06 9.60495e-06 0 -4.10661 20.7048 22.2077 -0 0 0 5.26855 0.0242065 0.524885 8.28878 2.47643 -0.185575 10.6613 3.17671 -0.29342 7.1035 2.12462 -0.137056 9.69556 1.92914 -0.163129 12.4688 2.47258 -0.271242 8.30964 1.65565 0.118694 11.0655 -1.09955 0.0969133 14.2282 -1.40795 0.167859 9.48438 -0.944027 0.0791294 12.122 -2.40494 0.253338 15.5914 -3.07697 0.420579 10.3887 -2.06547 0.185575 -1.35488 -2.96808 1.02105 -18.9744 -16.9387 -1.3859 -123.138 -55.6592 -96.2929 153.82 67.6302 -101.924 4.58752 -15.1304 -20.5509 0.420019 -19.9066 2.46547 37.4361 15.0725 17.208 -4.40622 -7.11465 -2.10478 4.97276 19.4464 1.23731 -4.46171 -24.5874 -18.3899 
1.00858 38.1777 0.454773 19.519 15.8182 -41.7217 7.01579 -0.00607036 0 -1.61094 2.10899 -2.85806 -1.27222e-14 -4.26887e-07 0 3.41509e-06 -8.11085e-06 0.0395647 -26.3938 -1.67973 7.15417 15.7904 -1.10932 -7.98663 8.53774e-07 7.95139e-16 0 4.10661 20.7048 -22.2077 -0 0 0 -10.0816 -0.0884751 1.00248 -15.8876 4.6949 0.656107 -20.4565 5.98552 1.08136 -13.6099 4.03797 0.481325 -18.572 3.64477 0.596103 -23.8989 4.63227 0.980377 -15.9132 3.13873 0.438794 -21.1819 -2.06937 -0.387653 -27.2414 -2.62083 -0.635504 -18.1538 -1.78458 -0.285305 -23.2323 -4.51084 -0.927033 -29.9093 -5.69503 -1.52261 -19.9025 -3.89492 -0.681846 3.41509e-06 -8.11085e-06 0.0395647 -43.8835 -9.66378 23.702 -17.7716 -1.34434 8.5828 -2.77476e-06 7.47052e-06 0 -4.10661 20.7048 22.2077 -0 0 0 5.275 0.0242658 0.526374 8.29895 2.47944 -0.185575 10.6744 3.18056 -0.298707 7.11221 2.12721 -0.131221 9.70744 1.93148 -0.163129 12.4841 2.47556 -0.271242 8.31983 1.65766 0.111906 11.079 -1.10088 0.104678 14.2456 -1.40964 0.167859 9.496 -0.945173 0.0884693 12.1369 -2.40784 0.256409 15.6105 -3.08065 0.422435 10.4014 -2.06798 0.189746 -1.00836 -2.55062 0.762071 -19.0208 -16.8753 -1.3774 -123.234 -52.2141 -100.565 154.275 68.4151 -112.029 5.77798 -10.2002 -16.3214 0.456508 -20.045 2.7577 37.4838 13.8668 17.2024 -4.38222 -4.40627 -1.87549 5.37058 18.091 1.21561 -4.36937 -25.2315 -18.4303 
1.25552 38.4819 0.735381 19.4058 15.7684 -41.6937 7.05843 -0.00561237 0 -1.66146 2.09871 -2.53188 1.70755e-06 -1.28066e-06 0.0395647 -1.70755e-06 -7.25708e-06 0 -26.4178 -1.6059 6.83437 15.9894 -1.13458 -8.06549 -0 1.92099e-06 0 4.10661 20.7048 -22.2077 -0 0 0 -10.0856 -0.0885449 1.00326 -15.8939 4.69671 0.656107 -20.4646 5.98779 1.08208 -13.6153 4.03954 0.482949 -18.5794 3.64616 0.596103 -23.9084 4.63399 0.981973 -15.9195 3.13994 0.438794 -21.1903 -2.07015 -0.385629 -27.2522 -2.62179 -0.635504 -18.161 -1.78526 -0.282548 -23.2415 -4.51252 -0.92872 -29.9212 -5.69707 -1.52312 -19.9104 -3.8964 -0.685281 -1.70755e-06 -7.25708e-06 0 -43.7496 -9.70236 23.8726 -17.8404 -1.33085 8.46405 -0 0 0 -4.10661 20.7048 22.2077 -0 0 0 5.27906 0.0243031 0.524885 8.30534 2.48133 -0.181308 10.6826 3.18298 -0.301316 7.11768 2.12883 -0.131221 9.71491 1.93295 -0.158259 12.4937 2.47744 -0.271242 8.32623 1.65893 0.118694 11.0875 -1.10171 0.0969133 14.2566 -1.41071 0.167859 9.5033 -0.945893 0.0791294 12.1462 -2.40967 0.256409 15.6225 -3.08296 0.422435 10.4094 -2.06955 0.185575 -0.729271 -2.29917 0.552491 -18.9822 -16.6355 -1.33293 -122.611 -49.5329 -103.429 154.694 69.4971 -120.153 6.00616 -6.47285 -12.9431 0.479472 -19.7802 2.94626 37.6535 12.1051 17.1426 -4.36751 -0.593219 -1.57168 5.84297 16.1759 1.22779 -4.38101 -25.2552 -18.4554 
1.45363 38.8013 0.954986 19.3176 15.7748 -41.7064 7.14948 -0.00480471 0.0395647 -1.70382 2.08752 -2.20503 1.70755e-06 1.70755e-06 0 -8.53774e-07 6.83019e-06 0 -26.4505 -1.53714 6.53397 16.1619 -1.15351 -8.11091 1.70755e-06 2.13443e-06 0 4.10661 20.7048 -22.2077 -0 0 0 -10.0858 -0.0885476 1.00326 -15.8942 4.69678 0.654913 -20.4649 5.98787 1.08208 -13.6155 4.0396 0.484567 -18.5796 3.64621 0.597414 -23.9088 4.63406 0.981973 -15.9197 3.13998 0.438794 -21.1906 -2.07018 -0.389667 -27.2526 -2.62182 -0.634271 -18.1613 -1.78529 -0.285305 -23.2419 -4.51259 -0.927877 -29.9216 -5.69715 -1.52364 -19.9107 -3.89646 -0.684138 -8.53774e-07 6.83019e-06 0 -43.7145 -9.74178 23.9879 -17.903 -1.31976 8.36377 3.62854e-06 0 0 -4.10661 20.7048 22.2077 -0 0 0 5.27973 0.0243093 0.526374 8.30639 2.48164 -0.185575 10.684 3.18338 -0.296075 7.11858 2.1291 -0.137056 9.71614 1.93319 -0.163129 12.4953 2.47774 -0.271242 8.32728 1.65914 0.111906 11.089 -1.10185 0.111906 14.2584 -1.41088 0.176939 9.50451 -0.946012 0.0884693 12.1478 -2.40997 0.253338 15.6245 -3.08334 0.422435 10.4107 -2.06981 0.193827 -0.547401 -2.2683 0.40926 -18.8729 -16.2164 -1.25303 -121.816 -47.4551 -105.61 155.132 70.6141 -126.796 5.74957 -3.6433 -10.1725 0.491346 -19.5204 3.06604 37.4406 11.695 17.1168 -4.36709 0.231773 -1.50399 6.23975 15.8159 1.23794 -4.41948 -25.361 -18.5319 
